# xmcd
#
# Track frame offsets:
#  150
#  19962
#  39337
#  54477
#  72255
#  86456
#  107333
#  125133
#  149120
#  170208
#  188721
#  210016
#  231616
#  252866
#  269903
#  289005
#
# Disc length: 4121 seconds
#
# Revision: 0
# Processed by: cddbd v1.4PL0 Copyright (c) Steve Scherf et al.
# Submitted via: AltoMP3_Maker 3.0
#
DISCID=f5101710
DTITLE=许志安 - 留住这一刻（2）
DYEAR=1900
DGENRE=
TTITLE0=看清楚
TTITLE1=爱在心里
TTITLE2=只会深爱你
TTITLE3=我没有事
TTITLE4=单手拥抱
TTITLE5=情人不肯
TTITLE6=天使抱抱我
TTITLE7=梦
TTITLE8=默认
TTITLE9=你说谎
TTITLE10=滑浪
TTITLE11=安全感
TTITLE12=自以为错
TTITLE13=小心天气
TTITLE14=日落旅馆
TTITLE15=离开失恋现场
EXTD=
EXTT0=
EXTT1=
EXTT2=
EXTT3=
EXTT4=
EXTT5=
EXTT6=
EXTT7=
EXTT8=
EXTT9=
EXTT10=
EXTT11=
EXTT12=
EXTT13=
EXTT14=
EXTT15=
PLAYORDER=
